<?xml version="1.0" standalone="no"?>
<!DOCTYPE svg PUBLIC "-//W3C//DTD SVG 20010904//EN"
 "http://www.w3.org/TR/2001/REC-SVG-20010904/DTD/svg10.dtd">
<svg version="1.0" xmlns="http://www.w3.org/2000/svg"
 width="360.000000pt" height="360.000000pt" viewBox="0 0 360.000000 360.000000"
 preserveAspectRatio="xMidYMid meet">
<metadata>
Created by potrace 1.11, written by Peter Selinger 2001-2013
</metadata>
<g transform="translate(0.000000,360.000000) scale(0.100000,-0.100000)"
fill="#000000" stroke="none">
<path d="M1672 2279 c-103 -20 -157 -88 -176 -222 l-12 -82 -39 -5 -40 -5 0
-50 0 -50 40 -5 40 -5 0 -203 c0 -190 -1 -205 -19 -218 -21 -15 -73 -19 -92
-6 -8 5 -13 71 -15 207 -4 192 -5 203 -30 250 -28 56 -77 90 -143 99 -46 6
-86 -2 -164 -33 l-53 -21 -9 25 c-11 28 -26 30 -85 13 -22 -6 -69 -16 -105
-22 l-65 -11 0 -40 c0 -37 3 -41 35 -51 l35 -12 0 -192 c0 -180 -1 -192 -20
-205 -40 -28 -45 -36 -45 -70 l0 -35 166 0 165 0 -3 48 c-3 45 -5 47 -34 50
-20 2 -34 10 -36 20 -3 9 -2 99 0 199 l4 182 33 15 c47 22 110 21 134 -3 31
-31 41 -87 41 -235 l0 -139 -35 -33 c-27 -25 -35 -40 -35 -68 l0 -36 323 2
322 3 3 42 c3 45 3 45 -63 55 -19 3 -20 12 -23 193 -1 105 0 200 3 211 4 18
15 23 70 29 l65 7 0 49 0 49 -70 0 -70 0 0 84 c0 104 10 136 44 136 21 0 26
-6 32 -35 11 -60 77 -85 123 -47 16 12 22 30 23 65 2 39 -2 52 -24 73 -38 38
-110 50 -196 33z"/>
<path d="M3131 2082 c-23 -45 -74 -92 -119 -111 -28 -12 -32 -18 -32 -51 0
-41 11 -54 51 -63 l26 -7 5 -192 c6 -214 16 -257 70 -303 86 -72 259 -46 333
51 31 40 31 45 1 74 l-25 23 -38 -30 c-21 -17 -48 -33 -59 -37 -35 -11 -71 9
-82 46 -16 48 -24 222 -15 303 l8 70 75 10 75 10 3 48 3 47 -80 0 -81 0 0 53
c0 88 -6 97 -56 97 -41 0 -45 -3 -63 -38z"/>
<path d="M384 1979 c-71 -9 -121 -35 -176 -91 -64 -66 -90 -137 -91 -248 0
-72 4 -95 27 -146 55 -122 145 -178 286 -178 96 -1 166 24 232 83 46 40 55 66
32 92 -22 25 -30 24 -71 -7 -77 -59 -173 -72 -234 -31 -45 29 -79 98 -79 158
l0 46 46 7 c26 3 109 6 185 6 75 0 144 3 153 6 11 4 16 19 16 51 0 168 -141
277 -326 252z m101 -95 c22 -9 45 -57 45 -94 l0 -30 -109 0 -110 0 10 32 c5
17 23 47 41 65 25 26 40 33 69 33 21 0 45 -3 54 -6z"/>
<path d="M2050 1984 c-144 -22 -240 -112 -276 -257 -15 -59 -16 -80 -6 -143
15 -93 39 -141 97 -192 61 -54 130 -77 225 -76 127 1 222 59 275 169 l23 49
25 -51 c34 -67 80 -111 147 -142 46 -21 69 -26 141 -25 73 0 94 4 142 27 96
48 149 126 169 251 8 56 8 88 0 132 -23 113 -72 180 -167 225 -50 24 -73 29
-136 29 -133 0 -220 -49 -281 -156 -16 -30 -32 -54 -34 -54 -2 0 -15 22 -28
48 -29 57 -92 117 -150 142 -43 19 -123 30 -166 24z m74 -104 c77 -29 113
-279 58 -403 -35 -80 -106 -94 -170 -34 -34 32 -56 118 -56 227 -1 82 2 102
24 145 34 68 81 89 144 65z m640 -19 c69 -72 85 -296 29 -404 -17 -33 -73 -60
-107 -51 -32 8 -71 50 -92 99 -25 59 -30 208 -10 277 30 103 119 143 180 79z"/>
</g>
</svg>
